<svg width="767" height="767" viewBox="0 0 767 767" fill="none" xmlns="http://www.w3.org/2000/svg">
<path d="M680.321 294.321L679.937 292.923C679.628 290.536 679.071 288.222 678.267 285.846L677.475 283.471L676.906 282.246C675.632 279.5 674.159 277.075 672.477 274.86L672.068 274.019L408.9 10.937C405.832 7.8687 402.256 5.41901 397.765 3.35286L394.635 2.18987C392.321 1.39805 389.958 0.841307 387.447 0.494887L385.628 0H210.327C142.107 0 86.6052 55.4892 86.6052 123.722V643.278C86.6052 711.498 142.107 767 210.339 767H556.71C624.943 767 680.407 711.523 680.407 643.278V297.835L680.321 294.321ZM606.162 643.266C606.162 670.522 583.979 692.718 556.71 692.718H210.327C183.046 692.718 160.851 670.522 160.851 643.266V123.709C160.851 96.4286 183.034 74.233 210.327 74.233H345.443V211.218C345.443 279.438 400.945 334.952 469.165 334.952H606.149V643.266H606.162Z" fill="url(#paint0_linear_2_5)"/>
<path d="M181.562 422.039C181.562 438.012 194.503 450.953 210.475 450.953H538.177C554.149 450.953 567.091 437.999 567.091 422.039C567.091 406.079 554.149 393.126 538.177 393.126H210.475C194.503 393.126 181.562 406.079 181.562 422.039Z" fill="url(#paint1_linear_2_5)"/>
<path d="M538.177 470.241H210.475C194.503 470.241 181.562 483.195 181.562 499.143C181.562 515.115 194.503 528.069 210.475 528.069H538.177C554.149 528.069 567.091 515.115 567.091 499.143C567.091 483.195 554.149 470.241 538.177 470.241Z" fill="url(#paint2_linear_2_5)"/>
<path d="M538.177 547.345H210.475C194.503 547.345 181.562 560.286 181.562 576.258C181.562 592.231 194.503 605.172 210.475 605.172H538.177C554.149 605.172 567.091 592.218 567.091 576.258C567.091 560.298 554.149 547.345 538.177 547.345Z" fill="url(#paint3_linear_2_5)"/>
<defs>
<linearGradient id="paint0_linear_2_5" x1="383.506" y1="0" x2="383.506" y2="767" gradientUnits="userSpaceOnUse">
<stop stop-color="#644AFF"/>
<stop offset="1" stop-color="#FFD25D"/>
</linearGradient>
<linearGradient id="paint1_linear_2_5" x1="374.326" y1="393.126" x2="374.326" y2="450.953" gradientUnits="userSpaceOnUse">
<stop stop-color="#644AFF" stop-opacity="0.52"/>
<stop offset="1" stop-color="#E5E5E5"/>
</linearGradient>
<linearGradient id="paint2_linear_2_5" x1="374.326" y1="470.241" x2="374.326" y2="528.069" gradientUnits="userSpaceOnUse">
<stop stop-color="#644AFF" stop-opacity="0.52"/>
<stop offset="1" stop-color="#E5E5E5"/>
</linearGradient>
<linearGradient id="paint3_linear_2_5" x1="374.326" y1="547.345" x2="374.326" y2="605.172" gradientUnits="userSpaceOnUse">
<stop stop-color="#644AFF" stop-opacity="0.52"/>
<stop offset="1" stop-color="#E5E5E5"/>
</linearGradient>
</defs>
</svg>
